<?xml version="1.0" encoding="UTF-8" ?>
<svg height="100%" version="1.1" viewBox="0 0 1024 1024" width="100%" xml:space="preserve"
    xmlns="http://www.w3.org/2000/svg" xmlns:xlink="http://www.w3.org/1999/xlink">

    <path transform="translate(0, 25)"
        d="
        M 543 1 
        C 506 1 463 5 414 15 
        C -20 105 124 396 124 396 
        C 124 396 14 445 29 548 
        C 47 666 181 683 181 683 
        C 181 683 80 914 463 948 
        L 463 1021 
        L 588 1024 
        L 587 952 
        C 912 943 862 772 862 772 
        C 862 772 1007 714 995 458 
        C 983 202 789 223 789 223 
        C 789 223 804 2 543 1 Z"
        stroke="#fffeed" stroke-width="50" />
    <path transform="translate(0, 25)"  d="
        M 543 1
        C 506 1 463 5 414 15
        C -20 105 124 396 124 396
        C 124 396 14 445 29 548
        C 47 666 181 683 181 683
        C 181 683 67 943 538 952
        C 918 960 862 772 862 772
        C 862 772 1008 714 995 458
        C 983 202 789 223 789 223
        C 789 223 804 2 543 1 Z" 
        fill="#76894C" />
    <path  transform="translate(0, 25)" d="
        M 391 144 
        C 385 144 374 148 358 158 
        C 312 188 238 271 238 271
        L 232 176 
        C 232 176 224 136 201 174 
        C 178 212 190 350 190 350
        L 202 518 
        C 202 518 138 487 122 481 
        C 105 475 61 481 95 528 
        C 129 576 179 590 197 603 
        C 282 717 463 898 463 898
        L 463 1024
        L 588 1026
        L 586 873 
        C 586 873 627 831 664 820 
        C 701 808 772 817 791 807 
        C 810 797 832 776 796 757 
        C 760 738 705 761 705 761 
        C 705 761 804 609 926 542 
        C 941 534 962 512 946 493 
        C 931 474 895 479 819 540 
        C 821 500 828 442 828 442 
        C 828 442 835 400 810 395 
        C 784 390 781 445 781 445
        L 767 559 
        C 767 559 768 591 734 637 
        C 699 683 588 783 588 783
        L 588 645
        L 700 645
        L 700 404
        L 755 404
        L 526 160
        L 296 403
        L 351 404
        L 351 645
        L 458 645
        L 458 756
        L 315 649 
        C 315 649 269 623 256 503 
        C 243 383 252 368 252 368 
        C 252 368 272 302 326 249 
        C 381 196 390 185 397 167 
        C 401 156 402 145 391 144 Z"
        fill="#1c1614" stroke="none" />

    <path d="
        M 468 313
        L 519 313
        L 519 382
        L 468 382
        L 468 313 Z 
        
        M 527 313 
        L 578 313 
        L 578 382 
        L 527 382 
        L 527 313 Z 
        
        M 468 391 
        L 519 391 
        L 519 460 
        L 468 460 
        L 468 391 Z 
        
        M 527 391 
        L 578 391 
        L 578 460 
        L 527 460 
        L 527 391 Z 
        
        M 468 489 
        L 578 489 
        L 578 638 
        L 468 638 
        L 468 489 Z"
        fill="#fffeed" stroke="none" />
</svg>